<?xml version="1.0" encoding="UTF-8"?> <svg xmlns="http://www.w3.org/2000/svg" xmlns:xlink="http://www.w3.org/1999/xlink" version="1.1" id="Layer_1" x="0px" y="0px" viewBox="0 0 600 450" style="enable-background:new 0 0 600 450;" xml:space="preserve"> <style type="text/css"> .st0{fill-rule:evenodd;clip-rule:evenodd;fill:#75D41B;} .st1{fill-rule:evenodd;clip-rule:evenodd;fill:#1E1919;} .st2{fill-rule:evenodd;clip-rule:evenodd;fill:#CF7D42;} </style> <path class="st0" d="M184.7,38.7c-2.9,1.4-2.9,2.5,0.2,16.9c1.2,5.8,1.3,6.6,3.2,19.6c0.8,5.9,2.1,14.3,2.9,18.8 c3.3,18.7,6.3,37.3,7.8,48.2c1.4,10,1.8,11.7,3.1,12.4c1.8,1,3.2,1,64,1.5c27.8,0.2,57.4,0.6,65.8,0.8c8.4,0.2,30,0.5,48.1,0.8 c32.1,0.4,32.8,0.4,35.6-1c1.6-0.8,3.1-2,3.4-2.7s0.9-4.8,1.5-9.1c0.5-4.3,1.3-10.6,1.8-13.9c0.4-3.3,0.9-7.3,1.1-8.9 s0.5-3.3,0.6-3.9c0.2-0.6,0.5-2.8,0.7-5s0.7-5.7,1.1-7.8c0.4-2.2,1-6.6,1.4-10c2-15.1,3.5-25.8,5.4-36c0.6-3.2,1.2-8.3,1.4-11.4 c0.3-4.8,0.2-5.9-1-7.8l-1.4-2.2l-122.6,0C221.4,37.9,185.8,38.1,184.7,38.7z"></path> <path class="st1" d="M192.4,42.1c-2.5,1-2.6,2-0.1,3.6c2.7,1.7,4,1.6,5.1-0.2c0.6-1,0.5-1.5-0.9-2.7 C194.6,41.3,194.5,41.2,192.4,42.1z M216.4,42.7l-1.7,1.3l1.5,1.5c1.8,1.8,4.5,2,5.9,0.4c0.8-1,0.7-1.4-1-2.8 C218.7,41.1,218.6,41.1,216.4,42.7z M202.7,43.3c-0.8,1-0.7,1.4,1,2.8c2.3,2,3.5,2.1,5.1,0.5c1.1-1.1,1.1-1.3-0.7-2.8 C205.9,41.8,204.1,41.7,202.7,43.3z M195,44.2c0,0.4-0.6,0.7-1.2,0.7c-1.1,0-1.1-0.1-0.2-0.7C194.9,43.4,195,43.4,195,44.2z M207.1,44.6c0,0.6-0.5,1.1-1.1,1.1s-1.1-0.5-1.1-1.1s0.5-1.1,1.1-1.1S207.1,44,207.1,44.6z M220.3,44.2c-0.2,0.3-1.1,0.8-1.9,1 c-1.2,0.3-1.3,0.2-0.6-0.6C218.7,43.5,220.9,43.1,220.3,44.2z M260.4,47.8c-4.1,0.3-20.3,0.6-35.9,0.7c-15.6,0.1-29.7,0.3-31.3,0.4 c-1.6,0.1-5.1,0.2-7.8,0.3c-4.7,0.1-4.9,0.2-3.6,1.2c1.2,1,4,1.1,22,0.7c38.7-0.8,110.2-1,124.4-0.3c7.8,0.4,21.2,0.7,29.7,0.7 c14.4,0,15.5,0.1,15.2,1.2c-0.2,0.7-0.6,2.6-0.8,4.3c-0.3,1.9-0.9,3.2-1.7,3.4c-0.6,0.2-3.5,1.5-6.4,2.8c-4,1.9-6.6,3.9-11.3,8.6 c-5.6,5.6-7.8,8.9-9.7,14.6c-0.3,0.9-0.9,1.2-1.8,1c-1-0.3-3.2,1.5-8.3,6.6l-7,7l-2.9-2c-1.6-1.1-5.2-2.7-8-3.6l-5.1-1.7l-0.4-3.2 c-0.9-7.2-0.2-6.6-7.9-6.2c-3.7,0.2-7.1,0.7-7.5,1.1s-0.9,2.4-1.1,4.4c-0.3,2.9-0.6,3.6-1.7,3.6c-1.7,0-13.8,6.3-18,9.3 c-2.8,2-3.5,2.2-6.2,1.8c-1.7-0.3-3.4-0.8-3.9-1.3c-1.3-1.1-4.3-0.3-8.7,2.4c-6.4,3.9-10.1,6.6-14.6,10.8c-4.4,4.1-5,4.3-11.7,5.1 l-3.9,0.4v3.3v3.3l-4.1,1.3c-5.3,1.6-15.5,7.3-19.3,10.7c-3.1,2.8-2.2,3.9,1.1,1.4c0.9-0.7,3-2,4.5-3c2.4-1.4,2.7-1.5,1.7-0.3 c-1.7,2-4.9,9.4-4.9,11.5c0,2.7,2.1,6.6,3.6,6.6c1.9,0,2.2-1,1-3.3c-0.6-1.1-1.1-2.8-1.1-3.8c0-2,1.9-7.6,3.2-9.3 c0.4-0.6,1.2-1.9,1.6-2.9c0.9-2.2,5-4.3,12.4-6.3c5.5-1.5,6.8-2.2,10.5-5.7c3.5-3.3,4.4-3,3.9,1.6c-0.4,3.6-0.3,3.8,1.3,4.3 c0.9,0.2,2.6,0.5,3.7,0.5c3.1,0,7,2,10.3,5.2c3.4,3.4,6.9,8.5,7.6,11.2c0.4,1.6,0.1,2-2.6,3.3l-3.1,1.5l-1.6-1.9 c-1.6-2-9.8-6.6-13-7.3l-1.8-0.4l-0.1,6.4c-0.1,6.3-0.1,6.4,1.7,6.4h1.7l-0.5-5.7l-0.5-5.7l1.9,0.7c3.5,1.3,5.9,3.5,7.5,6.8 c1.2,2.4,2,3.2,3.2,3.2c1.4,0,9.1-3.6,10.6-5c2.1-1.9-8.5-14.4-14.7-17.3c-2-0.9-4.7-1.9-6-2.2c-1.5-0.3-2.3-0.9-2.4-1.7 c-0.2-4.1-0.7-6.2-1.7-6.9c-0.6-0.5-1.1-1-1.1-1.2c0-0.8,11.6-9.8,16.8-13l5.4-3.3l5.5,1.2c6.5,1.5,5.1,1.2,18.1,3.6 c5.8,1.1,10.5,2.2,10.5,2.6c0,0.3-0.5,0.4-1,0.2c-2-0.8-5,1.6-7.2,5.5c-0.9,1.6-0.9,2.4-0.1,5.6c1.1,4.1,2.2,5.3,5.9,6.3 c4.3,1.2,4.5,0.9,4.1-8.9c-0.2-5.1,0-8.8,0.3-8.8c0.4,0,3.9,0.6,8,1.4c4,0.8,7.9,1.4,8.6,1.4s3.7-2.3,6.6-5.2l5.3-5.2l1.3,1.6 c0.7,0.9,1.5,1.4,1.7,1.2c0.2-0.2,0.6,0.8,0.9,2.3c0.6,3.3-0.1,3.9-6.7,6.1c-3.6,1.2-4.9,1.4-5.9,0.7c-0.7-0.4-1.5-0.8-1.7-0.8 c-0.8,0-0.3,1.4,0.8,2.5c1.4,1.4,4.4,1,10.5-1.5c2.3-0.9,4.8-1.7,5.5-1.7c0.9,0,1.3-0.5,1.3-1.6c0-1.9-3.2-7.7-4.7-8.6 c-0.6-0.3-1-1-0.9-1.4c0.1-0.5,3.3-4,7.3-7.8l7.2-6.9v5.5c0,4.3,0.4,6.2,1.6,8.8c0.9,1.8,2.2,3.5,2.8,3.7c0.7,0.2,2.3,1.4,3.6,2.5 c3,2.6,9,6.1,14.3,8.3c2.9,1.2,3.9,2,3.8,2.9c-0.1,0.7-0.6,5.1-1.2,9.8c-0.6,4.7-1.1,8.9-1.1,9.4c0,1.8-1.4,0.8-7.3-5.1 c-4.4-4.5-6.5-6-7.9-6c-2.1,0-9.1,2.5-12,4.3l-2,1.2l3,6c3.5,6.9,8.2,12,12.3,13.3c3.8,1.2,5.9,0,2.2-1.2 c-3.9-1.3-10.1-8.1-14.9-16.2c-0.6-1.1,2-2.4,8.2-4.3l4.7-1.4l2.6,3.8c3.8,5.5,7,8.1,9.9,8.1c1.3,0,2.7-0.4,3-0.9 c0.6-0.9,2.3-16.1,2.4-20.5c0-2.2-0.3-2.7-2.6-3.9c-13.9-7.2-18.9-10.5-20.8-13.8c-1.6-2.7-2.7-11.8-1.6-13.4c0.4-0.5,3.8-1,9-1.4 c7-0.4,8.4-0.3,8.2,0.5c-0.1,0.5,0,2.5,0.3,4.3c0.8,4.7,5.3,8.6,8.8,7.4c1.1-0.3,1.3-1.5,1.4-7.7c0.1-4,0.5-7.4,0.8-7.5 s2.7-1.9,5.4-3.9C389.2,73.7,394,70.2,398,68l3-1.7l3.6,3c3.6,3,6,6.7,6.5,9.8c0.1,0.9,0.1,1.6-0.1,1.6s-3.2,1.3-6.7,2.9l-6.3,2.9 l-1.9-1.7c-3.1-2.8-5.3-4.1-7.3-4.1c-2.6,0-2.6,0.1-3.8,19.6l-0.2,4.3l4.1,1.3c6.8,2.2,14.6,9.7,16.8,16.4c2,6.1,0.5,13.3-4,19.6 c-2.7,3.8-8.4,9-11.9,10.8c-3.3,1.7-3.9,2.7-1.8,2.7c2.4,0,10.3-5.3,14.4-9.7c9.3-9.9,9.6-21.1,0.8-30.9c-3.1-3.5-11.5-9.5-13.9-9.9 c-0.8-0.1-1.4-0.8-1.4-1.5s0.1-5.7,0.2-11.2c0.1-9.5,0.2-10,1.6-10c0.8,0,2.8,1.3,4.4,2.8c1.6,1.6,3.6,2.8,4.4,2.8 c1.8,0,12.9-3.9,14.2-4.9c0.5-0.4,1.1-0.5,1.4-0.2c0.9,0.9-0.1-3-1.7-6.8c-1.1-2.5-2.9-4.8-5.5-7.1l-3.9-3.4l1.7-1.1 c1.5-1,12.7-3.4,20.7-4.6c1.9-0.3,3.6-0.8,3.8-1.1c0.9-1.5-2.6-1.4-11.1,0.3c-5,1-10,1.9-11,1.9s-3,0.6-4.3,1.4l-2.3,1.4l-3.3-1.4 c-1.8-0.8-3.9-1.4-4.6-1.4c-1.1,0-1.3-0.7-1.5-4.6l-0.2-4.6H411c11.1,0,20.1-0.3,20.1-0.6c0-2.4-1.6-2.4-45.1-1.9 c-29.3,0.3-43,0.2-43.2-0.3C342.5,47.7,272.5,47,260.4,47.8z M388.8,54c-0.3,1.5-0.6,3.5-0.8,4.6c-0.4,2.1,0.5,2.9,4.7,3.8 c1.4,0.3,3.1,0.9,3.8,1.4c1.2,0.8,0.9,1.2-3.2,4c-5.7,3.8-9,6.4-14.6,11.1c-4.7,4-5.4,4.4-5.1,2.6c0.1-0.6-0.3-1.5-1-1.9 c-1.6-1-5,0.4-7.9,3.4c-2.2,2.3-2.6,2.4-10.5,3.1c-4.5,0.4-8.3,0.6-8.4,0.5c-0.4-0.4,3.9-8,5.3-9.4c0.7-0.8,3.1-3.3,5.3-5.6 c2.2-2.3,5.1-4.6,6.4-5.2c1.3-0.5,3.9-1.5,5.6-2.2c5.9-2.2,6.2-2.5,6.7-6.9c0.8-6.2,0.5-6,7.6-6h6.4L388.8,54z M371,83.7 c-0.4,1.1-3.3,1.5-3.3,0.4c0-0.3,0.7-1.1,1.6-1.7C371,81.3,371.7,81.9,371,83.7z M308.6,89.9c0.2,6.8,0.5,7.3,3.9,7.4 c3.3,0.1,6.9,1.4,9.7,3.7l1.8,1.4l-5,5.3c-3.7,3.9-5.3,5.2-6.4,5c-0.8-0.2-9.5-1.8-19.4-3.7c-9.9-1.9-18-3.5-18-3.7 c0-1.1,16.9-10.1,17.8-9.6c0.6,0.4,2.1-4.2,2.1-6.6c0-1.8,1.1-2.2,7.1-2.5c2.2-0.1,4.4-0.3,5-0.4C308.3,86.2,308.5,87,308.6,89.9z M369.7,87.5c0.6,0.4,0.8,2,0.7,4.8c-0.2,4.1-0.4,4.6-1.9,4.6c-0.9,0-3.1-7.6-2.6-8.9C366.3,86.8,368.3,86.6,369.7,87.5z M268.6,110.6c-0.6,0.9-1.2,3.7-1.5,6.2c-0.6,5.5,1,10.2,5.2,16c4.7,6.4,8.9,9.9,17.5,14.4c3.1,1.6,7.3,3.8,9.2,4.8 c1.9,1,4,1.7,4.6,1.6c1.1-0.2-0.5-1.3-10.1-6.9c-10.1-5.9-19.5-15.2-22.3-22.2c-1.3-3.3-1.7-10.4-0.7-13.6 C271.4,108.5,270.1,108.3,268.6,110.6z M294.7,120.5c-0.2,4-0.4,7.4-0.6,7.6c-0.5,0.5-3.9-2.2-4.3-3.3c-0.2-0.7-0.7-1.8-1.1-2.5 c-1-1.8,1-6.2,3.5-7.7c1.1-0.7,2.1-1.2,2.3-1.2C294.8,113.2,294.9,116.5,294.7,120.5z M307.8,116.9c-0.2,1.2-0.4,5.6-0.4,9.8v7.6 l2.3,1.5c1.3,0.8,3.4,1.7,4.6,2c5.2,1.1,12.2,7.1,16.4,14.1c1.6,2.7,2.5,3.2,3.3,2c0.6-0.9-1.2-5-3.2-7.1c-0.9-1-2-2.3-2.4-2.9 c-1.1-1.6-9.7-7-11-7c-0.6,0-2.5-0.7-4.2-1.5l-3.1-1.5v-8.4c0-8.3-0.3-10.7-1.4-10.7C308.5,114.6,308,115.6,307.8,116.9z M381.2,125.5c0,2.1-0.2,6.5-0.4,10c-0.3,7-0.1,7.3,4.6,4.9c5-2.5,7.1-10.2,3.9-13.8c-1.5-1.7-6.3-4.8-7.3-4.8 C381.6,121.8,381.2,123.4,381.2,125.5z M232.7,123.1c0,0.6-4.5,4.4-5.2,4.4c-0.2,0-0.5-0.9-0.6-2.1c-0.2-1.7,0-2.2,1.2-2.4 C230.7,122.4,232.7,122.5,232.7,123.1z M386.4,125.2c1.7,1.5,1.6,6.5-0.3,10.8c-0.8,1.9-1.8,3.5-2.1,3.5c-0.3,0-0.6-3.7-0.6-8.2 C383.4,122.7,383.4,122.6,386.4,125.2z M221.7,145c-2.2,2.2-2.8,4-2.4,7.8c0.2,2.3,0.5,2.8,1.9,3c1.5,0.2,1.6,0,1.2-2.2 c-0.5-2.5,0.8-7.6,1.9-7.6c0.3,0,0.6,2.2,0.6,5c0,4.5,0.1,5,1.4,5c1.2,0,1.4-0.5,1.4-3.7c0-5.3-1.2-9.1-2.8-9.1 C224.2,143.1,222.8,143.9,221.7,145z"></path> <path class="st1" d="M182.9,29.5c-3.2,0.8-6.3,2.8-6,3.9c0.1,0.2-0.3,1.2-0.8,2.2c-1.2,2.1-1.2,6.3-0.2,10.9 c0.4,1.8,1.8,11.1,3,20.6s3.1,23.2,4.3,30.4c1.1,7.2,2.6,16.8,3.2,21.3c1,7.9,3.5,25.8,4.3,31.6c1.2,8.4,1.1,8.2,2.8,8.2h1.6 l-1.2-8.7c-1.6-11-5.7-39.5-6-41.4c-0.1-0.8-1-7.3-2-14.6c-1.9-13.6-3.8-26.8-4.4-29.9c-0.9-4.7-2.6-17.2-2.9-20.8 c-0.4-5,1.2-9.9,3.9-11.6c1-0.7,3.1-1.2,4.7-1.2c1.6,0,51.7,0.2,111.3,0.5C437,31.5,437.4,31.5,441.2,33c3.7,1.5,3.9,2.6,2.6,11.2 c-0.5,3.6-1.1,7.5-1.3,8.7c-0.2,1.2-0.7,4.9-1.1,8.2s-0.9,6.8-1.1,7.8s-1.3,9.5-2.5,18.8c-1.2,9.4-2.3,17.9-2.5,18.8 c-0.2,1-1.6,11.9-3.2,24.2s-3,22.8-3.2,23.3c-0.3,1,2.4,2,3.2,1.2c0.3-0.3,1.6-9.4,2.8-20.2c1.2-10.8,2.7-22.8,3.2-26.7 c0.6-3.9,1.7-13.2,2.5-20.6s2-17.5,2.5-22.4c0.6-4.9,1.2-10.5,1.4-12.4c0.6-5.1,1.5-11,2.3-14.1c0.7-2.6,0.6-2.9-2.1-5.8 c-3.2-3.5-5.8-4.5-10.9-4.3c-4.8,0.3-134.5,0.3-197,0C198.3,28.6,185.4,28.8,182.9,29.5z M104.8,163.8c-0.2,0.2-1.8,0.5-3.6,0.7 c-7.8,1-16.4,5-21,9.8c-4.9,5.1-5.7,7.5-4.7,14.4c1.1,7.1,2,8.7,7.7,13.4c5.2,4.3,6.9,5,21.9,8c10.5,2.1,11.4,2.5,12.9,5.4 c2.1,4,1.4,7-3.3,13.8c-2.1,3.1-7.3,5.9-13.5,7.3c-1.8,0.4-7.7,1.7-13.1,2.9c-5.5,1.2-10.4,2.5-11,2.9c-1.3,0.8-1.8,0.9,14.2-2.2 c12.2-2.4,20-4.8,23-7.2c2.1-1.7,5.8-8,6.4-11.1c0.8-3.9-3.4-10.2-7.7-11.6c-1.2-0.4-7-1.7-12.8-2.9c-11.4-2.4-14.2-3.5-18.3-7.3 c-2.7-2.5-3.6-4.9-4.5-11.3c-0.8-5.8,0-8,4.9-12.9c3.8-3.9,5.2-4.7,10.6-6.7c11.7-4.2,20.5-4.7,37.4-1.9c12.3,2,15.1,2.2,13.8,1 c-1.4-1.4-23.3-4.8-31.5-4.8C108.4,163.6,104.9,163.7,104.8,163.8z M191.3,165.6c-0.6,1.1-2.3,5.2-3.9,9.1 c-1.5,3.9-5.2,12.6-8.1,19.5c-2.9,6.8-8.3,21.2-11.9,32c-3.6,10.8-7.7,22.1-9,25.2c-1.3,3.1-3.9,9.5-5.7,14.2 c-1.8,4.7-3.4,8.7-3.6,8.8c-0.1,0.2-1.7-0.9-3.4-2.3c-6.9-5.7-16.2-8.4-28.9-8.5c-5.3,0-8.7,0.5-16,2.3c-5.1,1.3-9.9,2.9-10.7,3.6 c-0.8,0.7-2.8,2-4.5,2.8c-2.3,1.1-3.9,2.8-6.4,6.7c-5.2,8-6.1,11.6-6.1,24.4c0,9.8-0.1,10.6-1.1,9.1c-2.3-3.8-8.6-5-11.7-2.3 c-5.9,5.3-9.5,11.9-9.7,18c-0.3,6.4,0.1,7.9,3.2,13.1c2.6,4.4,3.9,5.7,8.7,9c3.2,2.2,7.4,4.3,9.9,5c2.3,0.7,5.6,2,7.2,2.9 c1.9,1.1,4,1.7,6.1,1.7c2.3,0,3.4,0.4,4,1.4c0.9,1.5,10.4,6.5,12.3,6.5c0.7,0,4.2,0.8,7.9,1.8c9.3,2.5,17.8,3,22,1.4 c1.8-0.7,4.5-1.4,6.1-1.7c1.6-0.3,4.6-1.8,6.8-3.4c3.4-2.5,4.2-3.6,5.8-7.8c1.7-4.4,3.8-13.6,4.6-20.2c0.2-1.4,0.6-4.4,1-6.8 c1.7-10.9,2.5-21.1,2.5-31.3c0-8.2-0.1-8.7-2.2-12.4c-1.2-2.2-2.6-5.1-3-6.5c-0.5-1.4-1.3-3-1.9-3.5c-0.9-0.8-0.9-1,0-1.7 c0.6-0.4,2.2-3.8,3.6-7.5c4.1-10.8,4.3-11.4,7.2-18.8c2.9-7.3,10.1-28.8,10.1-30.1c0-0.9,6.9-18.3,11.7-29.6 c2.8-6.6,8-20.2,9.4-24.7C194.1,162.8,192.4,163.4,191.3,165.6z M427.2,172.5c0.2,1.9,0.9,10.7,1.5,19.5s1.2,16.4,1.4,16.8 c0.2,0.5,0.9,0.7,1.7,0.5c1.7-0.4,1.7,1.5-0.7-21.2c-1.7-15.9-2.2-18.3-3.4-18.7C427,169.1,426.9,169.8,427.2,172.5z M211.1,171.3 c-8.4,0.4-8.6,1.4-0.3,1.4c2.7,0,4.9,0.1,4.9,0.2c0,0.1-1.1,3.1-2.4,6.6l-2.4,6.4l-6.2,0.5c-3.4,0.3-6.3,0.4-6.5,0.3 c-0.1-0.1,0.7-3.1,1.8-6.6c1.2-3.8,1.8-6.6,1.4-7c-0.4-0.4-0.8-0.5-1-0.3c-0.3,0.3-6.9,16.8-7.3,18.5c-0.1,0.3-0.3,0.9-0.4,1.4 c-0.5,1.9-4.8,14.3-10.3,29.9c-3.1,8.9-5.7,16.3-5.7,16.4c0,0.1,0.6,0.4,1.3,0.5c1.3,0.3,1.6-0.3,11.8-29.6l1.5-4.2l6.7,0.2 c3.7,0.1,6.8,0.2,6.9,0.3s-1.2,4.5-2.9,9.7l-3.1,9.5l-7.3,0.2c-9,0.3-9.1,1.6-0.1,1.6c7.1,0,6.8-0.3,5.3,5.7 c-1.7,6.7-1.2,6.4-8.1,6.4c-4.1,0-5.8,0.2-5,0.7c0.6,0.4,10.7,0.8,22.4,1s25.3,0.5,30.2,0.7s19.8,0.5,33.1,0.8 c13.3,0.2,33.9,0.7,45.9,1c20.3,0.5,66.3,0.3,73.1-0.4l3.1-0.3l-3.8,3c-2.1,1.6-5.8,4.8-8.2,7.1c-4.4,4.1-4.4,4.2-6.2,3 c-2.7-1.8-14.7-0.8-38.4,3.3c-24.7,4.2-61.1,18.3-70.3,27.1l-3.5,3.4l1.6,1.3c0.9,0.7,1.7,2.2,1.9,3.4c0.7,4.1,2.5,10.3,5,17.5 c1.4,4,3.1,9.9,3.7,13c1,5,1.4,5.7,2.9,5.9c1.6,0.2,1.7,0.1,1.2-2.4c-0.8-4.4-11.4-36.4-12.7-38.5c-0.9-1.4,5.2-5.7,14.5-10.1 s32.2-12.4,43-15c16.1-3.9,39.2-7.3,47.7-7c7,0.2,7.9-0.2,14.5-6.3c1.4-1.3,5-4,8.2-6.1c15.7-10.5,17-11.5,20.3-15.4 c2.5-3,8.3-7.3,13.1-9.8c3.1-1.6,19.4-6.7,27.6-8.7c13.7-3.3,13-3.2,13.5-1.1c0.2,1,1.1,2.2,1.9,2.6c1.4,0.8,1.5,0.7,1-2.3 c-0.3-1.7-0.7-3.3-0.8-3.6c-0.7-1.3-8.2-0.3-18.9,2.4c-6.3,1.6-12.5,3.3-13.7,3.8c-2.4,1-10.6,3.9-11.2,3.9c-0.2,0-0.6-2.6-0.9-5.9 c-1-11.7-4.7-39.3-5.4-40C418.3,171,226.3,170.6,211.1,171.3z M228.9,173.5h6.5l-2.2,6.4l-2.2,6.4h-8.8c-8.1,0-8.7-0.1-8.3-1.2 c0.3-0.7,1.1-3.3,1.9-5.9c2-6.9,1.8-6.6,4.3-6.1C221.3,173.3,225.3,173.5,228.9,173.5z M252.6,179.9l-2.1,6.4h-8.4h-8.4l1.7-5.4 c0.9-2.9,1.7-5.8,1.7-6.4c0-0.9,1.6-1,8.8-1h8.8L252.6,179.9z M272.3,175.4c-0.5,1-1.5,3.9-2.2,6.4l-1.2,4.5h-7.7 c-4.2,0-7.7-0.2-7.7-0.4s0.6-2.5,1.3-5.2c1.5-5.2,1.5-5.5,1.5-6.6c0-0.4,3.3-0.7,8.5-0.7h8.5L272.3,175.4z M293.9,175.1 c0,1.4-0.4,3.7-1.8,9.6c-0.4,1.6-0.6,1.6-10.5,1.6h-10.2l1.8-6.4l1.8-6.4h9.5C293.8,173.5,294,173.5,293.9,175.1z M317.9,175.1 c-0.2,0.9-0.6,3.2-0.8,5.2c-0.9,6.6,0.1,6-11.8,6c-8,0-10.6-0.2-10.6-0.9c0-0.5,0.4-3.4,0.8-6.4l0.8-5.5h11h11L317.9,175.1z M339.5,179.9v6.4h-10h-10l0.4-3.4c0.2-1.9,0.4-4.7,0.4-6.4l0.1-3h9.6h9.6v6.4H339.5z M360.6,174.1c0.6,0.4,1,2.8,1.3,6.4l0.4,5.8 h-9.6H343v-2.7c0-1.5-0.2-4.3-0.5-6.4l-0.4-3.7h8.8C355.8,173.5,360.1,173.8,360.6,174.1z M381.3,180.1l0.2,6.2h-7.8 c-9,0-8.1,0.7-8.9-7.9l-0.4-4.7l8.4,0.1l8.4,0.1L381.3,180.1z M398.7,174.2c0.2,0.2,0.5,3,0.7,6.2l0.3,5.9H392h-7.7v-5.9 c0-3.3,0.2-6.1,0.4-6.4C385.2,173.5,398.2,173.7,398.7,174.2z M418.4,177c0,1.5,0.2,4.2,0.5,6.1l0.5,3.3l-8.4-0.2l-8.4-0.2l-0.5-3.9 c-0.3-2.2-0.7-4.8-0.9-5.9l-0.4-2h8.9h8.9v2.8H418.4z M209.9,188.7c0.1,0.1-0.6,2.8-1.6,6.1s-1.9,6.7-2,7.8 c-0.3,1.9-0.3,1.9-7.6,2.1c-6.8,0.2-7.3,0.1-6.8-1.1c0.3-0.7,1.7-4.5,3.1-8.4l2.5-7.1l6.1,0.3C207,188.5,209.8,188.7,209.9,188.7z M227.8,196.4l-2.6,8l-8.6,0.2l-8.6,0.2l1.7-5.5c1-3,2.1-6.7,2.5-8.2l0.7-2.7h8.7h8.7L227.8,196.4z M249.6,189.6 c-0.3,0.7-0.8,2.5-1.1,4.1c-0.4,1.6-1.1,4.3-1.7,5.9c-0.6,1.7-0.8,3-0.6,3c0.3,0-0.1,0.5-0.9,1.1c-1,0.8-3.5,1-9.4,1 c-4.4,0-8-0.2-8-0.4s1.2-3.9,2.6-8.2l2.6-7.8h8.5C249.2,188.4,250,188.6,249.6,189.6z M267.9,190.4c-0.2,1.1-0.8,3.2-1.1,4.7 c-0.4,1.5-0.8,4.1-1,5.7c-0.2,1.6-0.5,3.1-0.7,3.3c-0.6,0.6-16.6,0.7-16.6,0.1c0-0.5,2.4-9.2,4-14.4c0.3-1.1,1.4-1.2,8.2-1.2h7.8 L267.9,190.4z M291.1,189.7c0,0.7-0.5,3.2-1,5.5c-0.6,2.3-1,5.3-1.1,6.6c0,2-0.3,2.3-2,2.4c-1.1,0-5.9,0.1-10.7,0.2l-8.7,0.1 l0.4-2.8c0.4-2.8,2.2-10.5,2.8-12.3c0.2-0.7,2.9-0.9,10.3-0.9C290.2,188.4,291.1,188.6,291.1,189.7z M315.7,190.4 c-0.1,1.1-0.5,4.2-0.7,6.9c-0.3,2.7-0.6,5.5-0.8,6c-0.2,0.9-2.1,1.1-11.3,1.1c-12.6,0-11.5,0.8-10.3-7.7c1.3-9.3-0.2-8.3,12.4-8.3 h11L315.7,190.4z M339.5,192.5c0,2.2,0.2,5.9,0.3,8.2l0.2,4.1h-11.4h-11.4l0.5-4.4c0.5-4.6,0.9-7.6,1.5-10.3 c0.4-1.6,0.6-1.6,10.3-1.6h9.9L339.5,192.5z M362.3,190c0,0.9,0.2,2.2,0.3,3c0.1,0.8,0.4,3.8,0.5,6.7l0.2,5.3l-9.6-0.1 c-5.3-0.1-9.6-0.2-9.8-0.3c-0.1-0.1-0.4-3.8-0.7-8.2l-0.5-8h9.7C362.1,188.4,362.2,188.5,362.3,190z M381.4,188.6 c0,0.1,0.2,3.9,0.5,8.5l0.4,8.4l-7.3-0.3c-4-0.2-7.5-0.5-7.7-0.7s-0.5-1.3-0.6-2.4c-0.1-1.1-0.3-4.6-0.6-7.8l-0.4-5.9h7.8 C377.9,188.4,381.4,188.5,381.4,188.6z M401.3,195c0.5,3.6,0.9,7.5,1,8.5l0.2,2h-8c-4.4,0-8.2-0.3-8.4-0.6c-0.2-0.3-0.6-4.2-0.9-8.5 l-0.5-8h7.8h7.8L401.3,195z M419.4,191.1c0.2,1.5,0.6,5.3,0.8,8.5l0.5,5.9h-7.2c-5.2,0-7.3-0.3-7.5-0.9c-0.3-0.9-1.8-10-2.4-13.9 l-0.3-2.3h7.8h7.8L419.4,191.1z M224,207.5c-2.9,9.6-5.5,17.6-5.8,17.9c-0.6,0.6-15.1,0.9-15.5,0.3c-0.2-0.4,0-2.2,0.6-4.1 c0.5-1.9,1.7-6.1,2.6-9.4l1.6-5.9h8.4C223.6,206.2,224.3,206.3,224,207.5z M244.3,206.7c0.3,0.1-0.4,3.2-1.5,6.8s-2.3,8-2.8,9.6 l-0.8,3l-8.9-0.2c-6.8-0.1-8.9-0.4-8.9-1.1c0-0.9,2.6-9.2,4.8-15.7l1.1-3.1l8.2,0.1C240.1,206.4,244,206.5,244.3,206.7z M263.9,207.1c0.2,0.2-0.7,4.5-2,9.7l-2.3,9.3h-8.7h-8.7l0.6-2.3c4.9-19.2,3.5-17.3,12.8-17.1C260,206.8,263.7,207,263.9,207.1z M312.3,206.9c1.4,0.1,1.6,0.3,1.3,2.4c-0.5,3-0.9,6.3-1.5,11.6c-0.3,2.3-0.6,4.4-0.8,4.6c-0.3,0.4-22.4,0.6-23.1,0.3 c-0.2-0.1-0.1-1.7,0.2-3.6c0.4-1.9,1.1-6,1.5-9.1l0.8-5.7l5.7-0.4C301.4,206.6,305.4,206.6,312.3,206.9z M287.2,213.1 c-1.7,12-1.8,12.3-3.4,12.4c-0.8,0-5.6,0.2-10.6,0.3c-7.8,0.2-9.2,0-9.6-0.9c-0.4-1.1,1.1-9.5,2.7-15.3l0.8-2.7h10.5H288 L287.2,213.1z M339.9,212.8c-0.3,3.2-0.5,7.5-0.5,9.5v3.6l-12.1-0.1c-6.6-0.1-12.2-0.3-12.4-0.5c-0.2-0.2,0.1-4.2,0.7-8.8 c0.6-4.7,1-8.7,1-9s5.3-0.5,11.9-0.5h11.8L339.9,212.8z M363.4,207.8c0.2,0.2,0.8,7,1.3,13.5l0.4,4.8h-10.9h-10.9l0.1-4.1 c0.1-2.2,0.2-6.6,0.3-9.6l0.1-5.5l9.8,0.4C358.9,207.5,363.3,207.8,363.4,207.8z M382.4,210.7c0.2,1.7,0.6,5.8,0.8,9.2l0.4,6.2h-7.4 h-7.4l-0.5-5.5c-0.3-3-0.6-7.2-0.8-9.2l-0.3-3.7h7.4h7.4L382.4,210.7z M403.4,212.8c0.5,2.8,1,7,1.2,9.2l0.4,4.1h-6.6 c-3.7,0-7.3,0.2-8.1,0.4c-2.9,0.7-3.3-0.5-3.7-9.9l-0.4-9h8.2h8.2L403.4,212.8z M421.6,212.6c0.4,2.5,1,5,1.2,5.4 c0.4,0.7-4.3,4.5-5.6,4.5c-0.3,0-1.5,0.8-2.8,1.8s-3.3,1.8-4.5,1.8c-2,0-2.2-0.2-2.2-2.3c-0.2-5.9-0.4-9.7-1-12.8l-0.6-3.4l7.4,0.2 l7.4,0.2L421.6,212.6z M217,228.5c0.2,0.2-1.5,5.7-2.8,9.1l-0.7,2h-7.8c-7.1,0-7.8-0.1-7.3-1.2c0.3-0.7,1-3.2,1.6-5.5 s1.3-4.5,1.5-4.9C201.7,227.5,216.4,228,217,228.5z M300.4,228.6c6.5,0.2,23.7,0.3,38.2,0.3h26.5v6.4v6.4l-3.4,0.1 c-1.9,0.1-4.8,0.1-6.6,0.1c-5.7,0-57.6-0.9-67.9-1.3c-5.5-0.2-18.5-0.3-28.9-0.3c-21.9,0-20.5,0.6-18.1-7.7l1.5-5.2l23.5,0.4 C278.1,228.1,293.9,228.4,300.4,228.6z M238.5,228.7c0,2.1-3.2,10.2-4.1,10.6c-1.2,0.5-17.3,0.5-17.8,0c-0.1-0.1,0.4-2.3,1.3-4.8 c0.9-2.5,1.7-4.9,1.8-5.4c0.2-0.7,2.7-0.9,9.5-0.9C234.3,228.3,238.5,228.4,238.5,228.7z M383.9,233.2c0.1,7.4,0.2,7.3-7.7,7.7 c-5.3,0.2-7,0.1-7.2-0.7c-0.2-0.5-0.4-3.3-0.6-6.1l-0.2-5.2l7.8,0.2l7.8,0.2L383.9,233.2z M404.2,231.6c0,2.2-0.5,3-2.8,5 c-1.5,1.3-3.9,3-5.2,3.8c-2.1,1.3-2.5,1.3-2.9,0.4c-0.3-0.8-1.1-1-2.9-0.7c-1.4,0.2-2.5,0.3-2.6,0.2c0-0.1-0.2-2.7-0.4-5.7l-0.3-5.5 h8.6h8.6L404.2,231.6z M409.9,229.2c0,0.1-0.6,0.8-1.4,1.5c-1.4,1.2-1.4,1.2-1.4-0.2c0-1.1,0.4-1.5,1.4-1.5 C409.2,229,409.9,229.1,409.9,229.2z M431.2,238.2c-0.6,0.4-1.8,0.7-2.6,0.7c-0.9,0-1.9,0.4-2.3,0.9s-1.6,1.9-2.6,3.2l-1.9,2.3 l-1.2-2.3c-1.1-2.1-4.6-4.9-5.3-4.1c-0.2,0.2-0.5,1.2-0.8,2.2c-0.3,1.4,0,2.4,1.3,4l1.7,2.1l-1.6,2.1c-0.9,1.1-2.7,2.4-4,2.9 l-2.4,0.9l2.4,0.1c1.9,0,3-0.6,5.2-2.8c1.7-1.7,3.5-2.8,4.5-2.8c1.6,0,6.1-4.2,6.1-5.6c0-0.3,1.1-0.8,2.4-1.1c2.5-0.5,4.3-2,3.5-2.8 C432.9,237.3,432.5,237.4,431.2,238.2z M419,241.6c0.7,1.4-0.1,4.4-1.3,4.4c-0.4,0-0.9-0.8-1.2-1.8C415.7,241,417.6,238.9,419,241.6 z M397.3,252.8c-1.9,1.3-1.4,3.8,0.9,4.4c2.4,0.6,3.7-0.1,4.3-2.3C403.2,251.9,400.3,250.7,397.3,252.8z M400.3,254.9 c-1.3,2-2.6,2.4-2.6,0.8c0-1,2.9-3.4,3.5-2.9C401.4,253,401,253.9,400.3,254.9z M379.6,266.1c2.5,6.5,7.8,19.1,16.8,40 c2,4.7,4.4,10.5,5.4,12.8s2.2,5.2,2.8,6.4c0.5,1.2,2.5,5.7,4.3,10s3.8,9.1,4.5,10.7c2,4.6,10,23.1,12,27.7c1,2.3,1.9,4.4,2,4.5 c0.3,0.5,3.1-0.7,3.1-1.4c0-0.4-1.1-3.1-2.5-6c-1.4-3-2.5-5.5-2.5-5.7s-0.8-2-1.7-4c-0.9-2.1-3.7-8.4-6.1-14.1s-4.8-11.3-5.4-12.4 c-3-6.5-6-13.3-6-13.6c0-0.2-1-2.5-2.2-5.1s-3-6.7-4-9s-2.8-6.5-4.1-9.2c-1.3-2.7-3.7-8.2-5.3-12.1c-1.7-3.9-3.2-7.4-3.5-7.8 s-1.7-3.6-3.3-7.1c-2.9-6.6-5-10.3-6-10.3C377.6,260.2,378.3,262.9,379.6,266.1z M430.5,263.9c-1.4,5.2-4.2,8.3-4.2,4.6 c0-0.9-0.5-2.1-1-2.5c-0.8-0.7-1.1-0.3-1.5,2.6c-0.7,4.9-1.3,5.8-2.4,3.2c-0.5-1.2-0.7-2.5-0.4-2.9c0.3-0.4-0.1-0.8-0.7-0.8 c-1.7,0-0.7,3.5,1.6,5.6c1.8,1.6,1.9,1.6,2.8,0.4c0.5-0.7,0.9-1.6,0.9-2.1s0.8-0.7,2.1-0.5c1.8,0.3,2.3-0.1,3.6-2.1 c2.1-3.5,3.1-7.2,2-7.9C431.6,260.6,431.3,260.9,430.5,263.9z M498,263.6c0,0.6,1.8,4.4,4,8.3c6.2,11.1,6.3,11.3,13.9,26.4 c9.1,18.2,10.2,20.2,13.8,26.7c4.8,8.6,4.8,9.2-1.2,9.6c-2.7,0.2-11.3,4.3-18.2,8.7c-1.6,1-3.2,2.8-3.2,3.7c0,1.4-0.3,2,4.8-1.6 c5.3-3.7,9-5.4,10.1-5.4c0.9,0-3.5,3.4-9.6,7.6c-6.3,4.3-5,4.3-3.9,5.4c0.4,0.4,1.8-0.2,3.8-1.8c3.6-2.9,10.5-7.4,14.6-9.5l2.8-1.5 l-2-0.9l-2-0.9l5.7-2.7c3.1-1.5,5.7-2.8,5.7-3c0-0.7-9.7-19.5-11.1-21.5c-0.8-1.2-2.1-3.7-2.8-5.7s-2.1-4.8-3-6.2 c-0.9-1.5-3.2-5.6-5-9.2c-3.3-6.5-5.7-10.5-10.8-18.4c-1.4-2.2-3-5-3.5-6.2C499.9,262.9,498,261.8,498,263.6z M124.4,266 c10.5,1,17.3,3.7,22.3,8.7c2,2,3.9,4.7,4.4,6.1c0.4,1.4,1.7,4.3,2.8,6.4c1.1,2.2,2.2,5.1,2.5,6.5c0.9,4.7-2,30.1-4.6,40.4 c-0.3,1.4-1,4.9-1.5,7.8c-2.3,14.1-4.3,19.4-9,23.2c-3.7,3-4.5,3.4-4.1,2.2c0.8-2-1.2-1.9-5.9,0.4c-4.2,2.1-5.5,2.3-10.2,2.2 c-2.9-0.1-7.6-0.7-10.3-1.5c-2.7-0.8-6.2-1.7-7.8-1.9c-4-0.7-8.4-3.5-10.5-6.6c-3.6-5.4-4.2-6.8-6.7-13.9c-1.4-4-3.3-9-4.3-11.1 c-1.6-3.4-2.2-5.9-3.3-14.3c-0.2-1.4-0.7-4.4-1.2-6.7c-0.5-2.4-0.7-8.5-0.6-14.3l0.2-10.2l3.5-6.8c3.3-6.5,3.7-6.9,7.6-9.1 c2.3-1.2,4.9-2.9,5.8-3.8c2-2,7-3.5,7.7-2.4c0.3,0.4,0.8,0.6,1.3,0.3c0.7-0.4,10.1-2.2,12.9-2.4C116.2,265.3,120.2,265.6,124.4,266z M104.1,268.7c-3.2,1-8.9,4.1-10.3,5.7c-0.8,0.9-2.2,2-3.2,2.5s-3.3,3.5-5.2,6.5c-3.8,6.3-5.2,11.9-4.5,17.6c0.4,3,1,4,3.9,6.9 c1.9,1.8,4.8,4.2,6.5,5.3c1.7,1.1,4.3,2.9,5.8,4.1s4.8,2.9,7.2,3.8c4.2,1.5,5,1.6,12.2,1c8.5-0.7,12-1.6,18.4-4.7 c5.4-2.6,14.2-10.8,15.3-14.3c1.4-4.3,0.5-13.4-1.7-18c-5.2-10.6-7.6-12.8-15.4-14.5C122.4,268.3,108.5,267.4,104.1,268.7z M125.6,271.3c11.2,1.7,12.7,2.3,5.5,2.4c-3.3,0-11.2,0.4-17.4,0.8c-10.9,0.7-11.6,0.8-16.5,3.3c-5.9,3-7.1,4.1-10.2,9.9 c-2.7,5-3.9,6.5-3.1,3.9c0.3-1,1.4-3.1,2.4-4.6c1-1.6,2.3-3.7,2.9-4.8c2.2-4.4,8.5-8.7,16.4-11.2C108.5,270,117.8,270.1,125.6,271.3 z M407.5,273.5c-0.3,0.3-0.5,1.4-0.5,2.4c0,1.4,0.5,2.1,1.5,2.4c3,1,4.9-3.1,2.1-4.6C409,272.9,408.2,272.9,407.5,273.5z M410.6,275 c0,0.3-0.5,1.2-1.1,1.9c-1.1,1.4-1.4,0.7-0.6-1.3C409.3,274.5,410.6,274,410.6,275z M102.5,279.7c-5,2.8-11.7,9.1-13,12.2 c-0.6,1.4-0.9,5-0.8,10.2c0.1,4.4,0,8-0.2,8c-0.8,0-4.2-6.1-4.2-7.5c0-4.7,6.5-17.8,10.2-20.5c3-2.2,8.2-4.3,11.5-4.6 C106.3,277.4,104.7,278.4,102.5,279.7z M111.6,280c-8.7,4.8-11.5,7.1-14.4,11.6c-1.6,2.5-3.7,5.5-4.7,6.7l-1.8,2.1v-2.1 c0-3.5,2.7-7.7,7.4-11.7c4.7-4,6.6-5.1,11.8-7.3C114.6,277.4,115.6,277.8,111.6,280z M141.7,279.4c2.3,1.3,1.4,1.6-2.2,0.8 c-4.7-1.1-12-1-12.4,0.2c-0.2,0.5-1.9,1.2-3.7,1.4c-5.4,0.7-12.7,3.9-15.7,7c-2.7,2.7-4.7,6.9-4.1,8.6c0.2,0.5-0.3,2-1,3.4 c-1.7,3.3-1.7,4.5,0.5,7c2.5,3,5.9,3.9,12.9,3.5c3.3-0.2,5.8-0.1,5.6,0.2c-0.7,1.1-8,2.3-12.2,2c-6.7-0.5-17.4-6.2-17.3-9.3 c0-0.5,0.9-2,2.1-3.2c1.1-1.3,3.3-4.3,4.9-6.8c4.8-7.4,14.2-13.4,23.7-15.1C128.8,278,139.4,278.2,141.7,279.4z M359.7,279.5 c-2.9,0.8-6.2,1.3-8.1,1.1c-2.7-0.3-3.3,0-5,1.8c-2.1,2.4-6.4,4.8-8.5,4.8c-0.7,0-1.9-0.6-2.6-1.4s-1.6-1.4-2.1-1.4 c-0.4,0-2.8,1.9-5.2,4.2c-5.1,4.9-9.5,7.8-11.7,7.8c-1.4,0-1.3-0.3,1.1-2.9c1.4-1.6,3-3.7,3.4-4.7c0.7-1.6,0.6-2-0.9-3.2 c-2.1-1.7-4.4-1.3-7.8,1.5c-2.8,2.3-3.5,5-1.8,7.5c1.1,1.7,1,1.8-3.6,6.4c-2.6,2.6-5.6,4.8-6.6,5.1c-4,0.8-4.8,1.7-1.1,1.3 c4.2-0.5,5.2-1.1,9.9-5.7c3.3-3.3,3.7-3.5,7.6-3.5c4.8,0,7.8-1.7,14.1-7.8l3.9-3.7l2.2,1.3c1.2,0.7,2.9,1.3,3.8,1.3 c1.8,0,7.6-3.7,8.8-5.6c0.6-1,1.5-1.2,4.1-0.9c2,0.2,5.6-0.3,9-1.2c3.7-0.9,6.7-1.3,8.5-1c2.7,0.4,2.7,0.4,1.6-0.8 C371,278,365.6,277.8,359.7,279.5z M142.8,282.6c2.9,1.2,3.6,3.6,3.1,10.4c-0.2,3.3-0.8,4.9-2.6,7.5c-1.2,1.8-2.3,3.5-2.3,3.8 c0,0.9,2.1,1.6,3.1,1c0.5-0.3-0.8,1.2-2.7,3.2c-4.1,4.3-13.1,9-19.4,10.1c-5,0.9-18.1,0.4-18.5-0.7c-0.1-0.4-1.2-0.8-2.4-0.8 c-3.3,0-9.7-4.8-10.3-7.6c-0.7-3.7,0.3-4.2,3.1-1.4c1.4,1.4,5.1,3.7,8.3,5.2c5.1,2.4,6.3,2.7,11.4,2.7c7.7,0,12.2-2.1,17.1-7.9 c7.4-8.7,9.3-13.5,7.5-18.9c-1.1-3.3-5.1-7.1-8.4-7.8c-1.8-0.4-0.5-0.5,3.9-0.3C137.4,281.4,141.5,282,142.8,282.6z M133.5,284.4 c3.2,1.2,4.2,8.9,1.5,12.4c-0.6,0.7-1.5,1.2-2,0.9c-0.8-0.3-0.9-0.9-0.3-3.2c1.3-4.8-2-9-6.9-8.8c-3.7,0.1-15.9,6.5-17.7,9.3 c-0.6,1-1.9,1.2-1.9,0.3c0-0.3,1.2-1.8,2.6-3.3C114.2,286.4,127.8,282.2,133.5,284.4z M319.6,286.8c0,1.1-1.8,3.7-4.7,6.9l-2.3,2.5 l-0.7-1.8c-0.9-2.4,0.1-4.3,3.6-6.6C318.9,285.6,319.6,285.4,319.6,286.8z M438.6,287.4c-0.2,0.5-0.8,2.3-1.3,4.1 c-1,3.1-1,3.1-1.1,0.9c-0.1-2.8-2.2-4.4-3.7-2.7c-1.3,1.6-1.5,6.7-0.3,6.7c0.6,0,1-0.5,1-1.1c0-0.8,0.3-0.8,1.4,0.4 c2.8,2.8,4.3,1.5,6-5c0.8-2.9,0.7-3.5-0.1-3.9C439.2,286.4,439,286.4,438.6,287.4z M130.9,289.2c1.4,3.7-6,9.9-14,11.6 c-3.9,0.8-8.9,0.7-9.9-0.3s10.2-8.9,15.9-11.2C126.8,287.7,130.3,287.6,130.9,289.2z M241.3,296.1c-0.2,0.1-10.2,0.5-22.3,0.7 c-51.8,1.1-57,1.3-55.1,2.7c1.3,0.9,97.6-0.2,98.6-1.1c0.1-0.1,0-0.7-0.3-1.4c-0.4-1-1.8-1.2-10.6-1.2 C246.1,295.8,241.4,295.9,241.3,296.1z M421.5,297.6c-0.5,2.2,0.7,3.9,2.9,3.9c3.5,0,4.3-3,1.2-4.6 C422.7,295.4,422.1,295.5,421.5,297.6z M424.2,299.1c-0.6,1.1-0.8,1.1-0.8,0.2c0-1.2,0.7-2.3,1.2-1.8 C424.8,297.7,424.6,298.4,424.2,299.1z M128.7,301.3c0.8,1.1,1,1.1,2.3,0.2c0.7-0.6,0.1,0.1-1.5,1.6c-3.6,3.4-9.5,5.2-17.6,5.4 c-7.7,0.2-9.3-0.7-7.8-4.3c0.5-1.3,1-2.5,1.1-2.6s1.1,0.3,2.3,0.9c1.2,0.6,3.4,1.3,4.7,1.5c3.1,0.5,10.3-1,12.9-2.7 C127.7,299.8,127.6,299.8,128.7,301.3z M355.2,303.4c-0.9,0.6-3.9,3.3-6.7,6c-2.8,2.7-6,5.6-7.2,6.5l-2.1,1.6l0.5-2.1 c0.3-1.2,0.7-2.6,0.8-3.2c0.2-0.6-0.2-1.6-0.8-2.1c-1-0.8-1.5-0.5-3.7,2.2c-3.7,4.6-12.1,12.8-13,12.8c-0.8,0-0.7-1,0.8-6.6 c1.1-3.9,0.4-5.2-2.5-4.5c-1.8,0.5-13.9,12-13.9,13.3s0.8,0.7,6.6-5.1c5.8-5.8,8.3-7.7,8.3-6.5c0,0.4-0.5,2-1.1,3.7 c-1.5,4.2-1.3,5.5,0.7,6.8c2.4,1.6,3.6,1,9.3-4.6l5-4.9l2,1.7c1.9,1.6,2,1.7,4,0.5c1.1-0.7,5.1-4,8.9-7.5s7.1-6.3,7.3-6.3 c0.2,0,1.3,0.9,2.4,1.9c2.4,2.3,6.1,2.4,13.9,0.4c5.7-1.5,6.7-2.1,5.1-3.1c-1.2-0.8-6.2-0.2-10.2,1.2c-1.5,0.5-3.9,1-5.3,1 c-2.1,0-2.8-0.4-3.8-2.1C359.3,301.9,357.6,301.6,355.2,303.4z M68.3,310.4c2.5,1.8,5.7,8.3,6.9,14.1c0.6,3.1,1.3,5.9,1.6,6.2 c0.4,0.7-2.9-1.5-6.9-4.5c-3.3-2.5-7.2-2.7-8.8-0.4c-2.1,3-1.4,5,3,9.2c2.2,2.1,5.9,5.7,8.1,7.9c2.4,2.5,4.6,4.1,5.5,4.1 c0.8,0,1.5-0.3,1.5-0.7c0-0.4,0.8-0.7,1.7-0.7c1.3,0,1.8,0.5,2.2,2.3c0.3,1.3,1.2,3.9,2.2,5.8c1.3,2.6,1.5,3.8,1,4.4 c-0.6,0.7-1.2,0.6-2.9-0.6c-1.2-0.8-4.1-2.1-6.6-2.7c-2.5-0.7-6.9-2.7-9.9-4.7c-11.3-7.2-16.1-19.6-11.2-29.1 c1.8-3.4,7.5-10.5,9.1-11.1C66.6,309.2,66.6,309.2,68.3,310.4z M430.2,316.2c-0.3,0.3-0.5,1.2-0.5,2.1c0,2.8,5.1,3.2,6.2,0.5 C436.7,316.8,431.9,314.6,430.2,316.2z M144.3,323.3c-0.7,3-2.3,10-3.7,15.5s-2.6,10.6-2.8,11.5c-0.6,2.3,2.5,2.9,3.3,0.6 c0.6-1.7,4.5-20.2,5.3-25.2c0.2-1.4,0.6-3.3,0.8-4.3c0.2-1.1,0-2.2-0.7-2.7C145.6,317.9,145.3,318.6,144.3,323.3z M70.7,329 c3.2,2.2,6.4,4.4,7.1,4.8c1.7,0.9,3.6,6.8,2.6,8.3c-0.6,1-0.9,0.9-2.3-0.8c-0.9-1.1-2.9-2.3-4.5-2.8c-1.8-0.5-3.6-1.8-4.7-3.3 c-1-1.4-2.2-2.5-2.5-2.5c-0.8,0-3.5-2.7-3.5-3.5c0-0.7,1.5-4.3,1.8-4.3C64.8,325,67.5,326.8,70.7,329z M373.4,334.6 c-1.3,2.8-4.9,6.9-7.6,8.9l-1.8,1.3l0.2-3.4c0.2-2.8,0-3.6-1.1-4.2c-2-1.1-3.9-0.3-5.7,2.4c-2,3.1-2,4.2,0.1,6.4l1.7,1.7l-2.8,2.2 c-4.1,3.3-6.9,3.5-10.6,0.8c-6.4-4.7-11-1.9-17.3,10.2c-2,3.9-2.2,4.6-1.1,4.6c0.4,0,0.6-0.3,0.3-0.7c-0.2-0.4-0.1-0.7,0.3-0.7 s0.8-0.3,0.8-0.7c0-0.4,1.6-3.1,3.6-6c5.2-7.7,9.2-9.2,14.1-5.4c1.4,1.1,3.3,2.3,4.2,2.5c2.1,0.6,5.9-1.1,9.3-4.2 c1.6-1.4,3.3-2.6,3.8-2.6c3-0.1,12-9.5,12-12.6c0-1.3,4.5-1.2,7.1,0.2c1.2,0.6,2.1,1.5,2.1,2c0,1.2,2.3,3.3,3.7,3.3 c0.6,0,3.1-0.9,5.5-2c3.7-1.7,4.2-2.2,3.3-2.9c-0.9-0.7-1.9-0.5-5.4,1l-4.3,1.9l-2.8-2.5c-2.5-2.3-6.5-4-9.3-4 C375.1,332.1,374,333.2,373.4,334.6z M361.7,342.1c-1.4,4.2-3.2,5.2-3.6,1.8c-0.2-1.5,0.3-2.5,2.1-4.1c1.3-1.2,2.4-2,2.6-1.8 C362.9,338.2,362.4,340,361.7,342.1z M525.1,338.7c0,0.2-0.5,0.5-1.1,0.7s-0.9,0.1-0.7-0.3C523.7,338.5,525.1,338.2,525.1,338.7z M386.1,358.6c-2.9,3-7,6.2-7.9,6.2c-0.3,0,0.2-0.8,1-1.9c0.8-1,1.5-2.4,1.5-3.1c0-1.3-2.1-3.6-3.3-3.6c-1.5,0-3.3,3-3.5,5.7 c-0.1,3.1-2.3,6-6.9,9.5l-2.7,2.1l2.4-4.4c2.7-5,2.4-6.8-1.5-7.1c-2-0.2-2.4,0.1-3.4,2.4c-0.6,1.4-1,3.9-0.9,5.4 c0.2,2.5-0.1,2.9-2.4,4.5c-3.5,2.3-4.5,2.2-7.8-0.8c-2.7-2.4-3.1-2.5-6.6-2.3c-2.5,0.2-4.9,1-7.1,2.4c-4.6,2.9-6.3,5.3-6.4,9.5 c-0.1,1.9-0.3,3.8-0.5,4.2c-0.2,0.4,0,0.9,0.6,1.1c0.8,0.3,1.1-0.6,1.5-3.7c0.6-5.1,2.7-7.9,7.5-10.4c5-2.5,8.1-2.4,10.9,0.3 c3.5,3.4,6,3.8,9.7,1.5c2-1.2,3.9-1.8,5.4-1.7c2,0.2,2.9-0.4,6.4-4.1c3.5-3.6,4.4-4.2,6.1-3.9c2.4,0.5,4.7-0.9,8.9-5.5l3.2-3.4 l1.7,1.3c1.1,0.8,3.5,1.5,6.5,1.9c2.6,0.3,6,1.1,7.5,1.9c4.3,2.3,13.3,0.6,11.1-2c-0.6-0.7-1.2-0.7-3.2,0.1c-3.4,1.4-7,1.3-10.3-0.4 c-1.8-0.9-4.2-1.4-6.7-1.4c-3.6,0-4-0.2-4.6-1.8C391.1,354.8,389.5,355.1,386.1,358.6z M377.5,361.3c-1.8,1.9-2.2,1.1-0.6-1.3 c0.8-1.2,1.4-1.6,1.6-1C378.6,359.5,378.2,360.5,377.5,361.3z M366.5,363.7c0,1.1-2.1,5.2-2.9,5.7c-0.7,0.4-0.8,0-0.4-1.8 c0.5-2.5,1.6-4.3,2.7-4.3C366.2,363.4,366.5,363.5,366.5,363.7z M436.2,377.4c0,1.3-3.5,2.9-7.9,3.7c-15.2,2.4-42.2,14.5-67.1,29.9 c-2.3,1.5-7.8,4.6-12.1,7.1c-8.4,4.8-17.8,11.6-17.8,13c0,1.6,2.3,0.7,6.8-2.9c4.1-3.2,10-6.7,34.1-20.3 c9.6-5.4,23.7-12.2,30.9-14.9c3.1-1.1,6-2.4,6.4-2.7c0.7-0.6,15.1-5.1,19.1-6c1.3-0.3,1.9-0.8,1.7-1.4c-0.3-0.7,0.5-1.1,2.5-1.3 c2.9-0.4,6.4-2.4,6.5-3.7c0-0.4-0.7-0.8-1.5-0.9C436.9,376.9,436.2,377.1,436.2,377.4z M412.9,391.5c-3.2,1-9.3,3.3-13.5,5.2 c-4.2,1.9-9.1,4-10.8,4.8c-3.5,1.5-19,9.9-24.5,13.4c-2,1.2-6,3.5-8.9,5c-6.5,3.3-15.4,9.4-16.7,11.3c-0.9,1.3-0.9,1.5,0.2,2.1 c0.8,0.5,1.3,0.4,1.5-0.2c0.9-2.8,43.6-26.7,55.4-31.1c2.6-1,6.4-2.5,8.4-3.4c3.7-1.7,10.5-4,16-5.4l3.2-0.8l-1.7-1.3 C419.3,389.4,420.1,389.4,412.9,391.5z M279.6,337c-0.2,0.4-0.1,0.7,0.2,0.7c0.4,0,0.8,0.6,1.1,1.2c1,3.2,30.3,71.9,31.8,74.5 c0.9,1.6,2.5,5.2,3.6,8c1,2.8,2.9,6.6,4.1,8.5s2.6,4.6,3.1,6c0.7,2,1.3,2.5,3.1,2.7c1.9,0.2,2.5-0.2,3.7-2.1l1.4-2.4l-1.5-0.2 c-0.8-0.1-1.9,0.2-2.5,0.6c-0.8,0.7-1.2,0.4-2.3-1.9c-0.7-1.5-2-3.9-2.8-5.2c-0.9-1.4-2.1-4.1-2.7-6c-0.6-2-2.7-6.8-4.6-10.7 c-1.9-3.9-28.3-65.3-29.4-67.6C283.2,336.9,280.9,334.8,279.6,337z M401.3,402.4c0,0.4-3.1,2.2-6.9,4 c-24.2,11.5-39.1,19.2-38.3,19.7c1.1,0.6,7.2-1.7,16.9-6.6c3.8-1.9,11.7-5.4,17.5-7.8s11.6-5.2,12.9-6.2c2.3-1.7,2.3-1.9,1.1-2.8 C403,401.6,401.3,401.5,401.3,402.4z"></path> <g> <path class="st2" d="M281.9,246.2c-2,1.1-4.2,2.4-5,3c-7,5-28.1,26-30.2,30c-0.5,0.9-1,1.8-1.3,2c-0.2,0.2-1,1.5-1.8,2.8 c-0.7,1.4-2.9,5.5-4.9,9.2s-4.5,8.1-5.6,9.8c-1.1,1.7-2,3.2-2,3.4c0,0.9-5.5,6.8-7.5,8c-1.4,0.8-1.4,0.9-0.1,1.7 c9,5.9,26.8,21.8,26.8,24c0,1.5,2.4,3.1,4.2,2.9c1-0.1,3.3-1.7,5.2-3.5c3.8-3.6,6.4-5.5,9.5-6.9c5.3-2.3,15.1-9.5,22.9-16.8 c3-2.8,6.9-6.1,8.7-7.3c1.8-1.2,3.4-2.4,3.6-2.6s1.6-1.3,3.2-2.5c6.1-4.4,12.8-12.3,14.2-16.6c0.3-1.1,0.1-2-0.8-2.9 c-3.2-3.2-14,0.7-20.7,7.5c-1.3,1.3-2.5,2.3-2.7,2.1c-0.6-0.6,4.3-9.4,8.1-14.6c2.3-3.1,4.8-5.6,6.1-6.2c4.7-2,13.2-3.9,17.3-3.8 c8.2,0.1,13.4-4.8,7.3-7c-1.3-0.5-3-0.9-3.7-0.9c-1.4,0-1.7-1.1-0.5-1.8c0.4-0.2,0.7-1.2,0.7-2.1c0-2.2-3.2-3.7-11.4-5.4 c-4.1-0.8-6.9-1.8-7.9-2.8c-2.7-2.5-9.6-4.2-19.2-4.6C285.6,244.2,285.3,244.3,281.9,246.2z"></path> <path class="st1" d="M294.5,244.7c-0.2,0.2-1.9,0.4-3.9,0.6c-2,0.1-4,0.6-4.6,1.1c-0.5,0.5-3.2,2.4-5.9,4.4 c-4.8,3.4-7.5,6.3-5.2,5.4c0.5-0.2,0.9-0.7,0.8-1.2s0.1-0.7,0.5-0.4c0.4,0.2,1.8-0.4,3.1-1.4c1.3-1,2.6-1.8,2.9-1.8 s1.5-0.8,2.8-1.7c2.8-2.2,7.3-3.2,13-2.9c4.3,0.2,7.5-0.6,5.2-1.3C301.6,245,294.9,244.4,294.5,244.7z M300.4,249.1 c-0.6,0.2-3,1.3-5.3,2.4c-3.9,1.8-6.4,2.7-14.8,5.1c-2.8,0.8-3.4,1.7-1.6,2.4c1.8,0.7,10.3-1.8,16-4.7c2.9-1.5,6.1-3,7.1-3.3 c2.8-0.8,9.2-0.4,14.4,0.9c3.8,1,4.8,1.5,5,2.7c0.2,1.6,2.9,3.1,6.1,3.4c3.7,0.3,2.6-1.2-1.6-2.2c-2.2-0.5-4-1.3-4-1.6 c0-1.5,8.5,0.3,9.8,2c0.8,1,0.9,1,0.9,0.1c0-2.2-2.7-3.3-12.1-5.2C310.3,249.1,302.2,248.3,300.4,249.1z M305.5,259 c-2.5,0.9-5.3,2.3-6.3,3.1c-1,0.8-2.1,1.4-2.4,1.4s-1.4,0.3-2.5,0.7c-1.4,0.5-1.7,1-1.2,1.5c1,1,7.4-0.8,14.3-4.1 c5-2.4,5.3-2.5,8.9-1.7c4.9,1.1,10.7,2,15.3,2.4c5.2,0.5,6.7,1,6.2,2.3c-1,2.7-1.2,4.5-0.5,4.5c1.6,0,2.3-3.5,1.1-5.7 c-0.6-1.2-1.3-2.1-1.6-2.1c-0.3,0-6.1-1-12.8-2.1s-12.7-2.1-13.2-2.1C310.3,257.3,307.9,258.1,305.5,259z M328.8,263.6 c0,0.9,3.9,2.8,5.7,2.8c1.6,0,2-2,0.6-2.4C332.7,263.2,328.8,263,328.8,263.6z M274.5,267.3c-1.4,1.3-2.6,2.8-2.6,3.2 c0,1.8,1.4,1.3,4.1-1.2c2.3-2.2,2.7-2.9,2-3.6C277.3,265.1,276.5,265.5,274.5,267.3z M326,269.6c-2.5,0.5-7,1.3-9.9,1.7 c-4.7,0.8-5.6,1.2-8.6,4c-4.1,3.8-9.3,11.2-13.8,19.6c-3,5.7-3.2,6.2-1.9,6.2c0.9,0,2.3-1.1,3.4-2.7c1.1-1.5,2.4-2.6,3-2.5 s2.6-1.7,4.6-4c2.7-3.2,4.5-4.6,7.3-5.7c4-1.6,7.3-2,5-0.7c-1.8,1.1-2.3,4.1-0.9,6.2c1,1.6,1,2,0.1,4c-1.3,2.8-5,6.3-8.2,8 c-5.1,2.6-11.3,7.3-17.5,13.3c-7.1,6.9-15.4,12.9-22.4,16c-2.8,1.2-6,3.4-8,5.5c-5.9,5.9-4,6,4.6,0.4c2.9-1.9,7.2-4.4,9.5-5.5 c7.4-3.6,14-8.4,21.9-16.2c7.3-7.1,13-11.8,14.5-11.8c0.4,0,1.8-1.4,3.3-3c1.4-1.7,3.2-3.7,3.9-4.4c0.7-0.8,2.5-3,3.9-5 c2.2-3.1,2.5-4,2.1-6.3c-0.6-3.6-2.5-4.8-7.3-4.3c-4.6,0.4-7,1.6-11.3,5.5c-3.1,2.9-3.2,2.9-2.1,0.8c0.6-1.2,2.9-4.8,5.1-7.9l4-5.7 l5.2-1.1c2.8-0.6,7.4-1.3,10.2-1.6c6-0.5,7.6-1.2,6-2.7C330.8,268.9,329.8,268.9,326,269.6z M320.3,284.9c1.2,0,0.7,2.1-1.2,5 c-2,2.9-2.8,3.2-4.1,1.2c-0.6-0.9-0.4-1.7,0.8-3.3c0.9-1.2,1.6-2.5,1.6-2.9c0-0.5,0.5-0.6,1.1-0.4 C319.2,284.7,320,284.9,320.3,284.9z"></path> <path class="st1" d="M219.5,315.9c-5.1,2.4-6,3.4-13.1,14c-2.4,3.7-16.9,18.2-29,29.2c-3.8,3.4-8.5,8.2-10.4,10.6 c-7.4,9.2-12.3,16-15.1,21.1c-1.6,2.9-3.7,6.3-4.7,7.6l-1.7,2.3h1.8c2,0,4.9-3.2,9.4-10.3c5.4-8.5,13.6-18.1,28-32.4 c8.1-8,16.2-16.6,18.1-19c1.9-2.4,3.8-4.4,4.1-4.4c0.8,0,5.5,4.5,6.9,6.7c0.6,0.9,3,3.9,5.4,6.6c2.3,2.7,6.3,7.4,8.9,10.5 c4.5,5.4,12.6,12.9,13.3,12.2c0.8-0.8-1.8-4-7-8.9c-3.1-2.9-7.6-7.7-10-10.7s-6.1-7.4-8.2-9.7c-2.1-2.3-4.6-5.1-5.5-6.2l-1.7-1.9 l4.5-6.6c3.4-5.1,5.2-7,7.8-8.4l3.3-1.8l3.9,2c5.1,2.7,21.4,17.7,26.7,24.7c2.3,3,4.7,6,5.3,6.6c1,1,0.6,1.8-3.7,8.6 c-4.6,7.2-17.4,23.9-21.9,28.6c-4.9,5.2-16.2,21.3-22.4,32c-2.5,4.3-5.4,8.9-6.5,10.3c-1.7,2.2-1.9,2.7-0.9,3 c3.1,1.2,5.6-1.2,10.9-10.2c2.8-4.8,3.8-6.3,4.9-7.8c0.5-0.6,2.2-3.3,3.9-5.9c3.6-5.7,10-14.7,15.6-21.9c6.2-8,10.7-14.2,13.1-17.8 c1.2-1.8,3.8-5.6,5.8-8.5c5.5-7.9,5.1-10-3.9-20.7c-8.6-10.3-18.3-18.8-25.5-22.3C224.1,314.3,223,314.2,219.5,315.9z"></path> </g> <g> <path class="st2" d="M469,215.7c-0.1,0.1-1.6,0.4-3.3,0.6c-1.7,0.2-4.2,0.7-5.7,1.1c-1.4,0.4-4.4,1-6.7,1.5 c-2.2,0.4-5.2,1.6-6.5,2.5c-1.4,0.9-3.9,2.3-5.7,3.1c-1.8,0.8-3.3,1.9-3.3,2.5s1.3,2.2,3,3.6l3,2.6l-1.2,2.3 c-1.9,3.7-4.1,10.6-4.1,13.1c0,2.2,1.7,9.6,2.5,10.9c0.2,0.4,0.7,2.2,1.1,4.1s0.8,4.1,1,4.9s0.5,4.5,0.8,8.2 c0.7,10.2,2.1,17.2,5.4,27c2.8,8.5,2.9,9.2,2.7,16.5c-0.1,4.7,0,7.7,0.5,7.7c1.7,0.2,3.6-0.3,5.9-1.5c3-1.6,7.2-2.4,18.2-3.5 c9.7-1,10.6-1.1,10-2.1c-0.2-0.4-0.1-0.9,0.3-1.1s0.7-3,0.7-6.3c0.1-6.9,1.2-18.5,2.1-21.5c0.4-1.2,1.3-3.7,2.2-5.5 c0.8-1.9,1.6-4,1.8-4.6c0.1-0.7,0.9-3.6,1.7-6.5c1-3.5,1.5-7.4,1.5-11.5v-6.2l-3.7-1.2c-2.1-0.7-7.9-3.1-13-5.5 c-5.1-2.3-12.2-5.3-15.8-6.6c-10.5-3.8-11.4-4.4-12-7.2c-0.7-3.7,0.4-4.3,5.2-2.9c8.7,2.5,24.4,8.3,28.7,10.6 c1.4,0.8,4.4,2,6.6,2.8l4,1.4l-0.5-1.5c-0.3-0.8-0.5-1.8-0.6-2.3c-0.1-0.4-0.8-2.4-1.7-4.3c-0.9-1.9-1.6-3.6-1.6-3.7 c0-0.3-5.1-7.5-6-8.5c-0.4-0.4-1.4-1.7-2.1-2.8c-0.8-1.1-3.1-3.8-5.1-5.9c-3.3-3.5-4-3.9-6.9-4.1 C470.7,215.6,469.1,215.6,469,215.7z"></path> <path class="st2" d="M463.8,249.5c0.9,0,5.3,5.4,5.3,6.5c0,0.3-0.6,0.6-1.2,0.6c-0.7,0-2.6,0.8-4.4,1.8c-3.7,2.1-4.2,1.8-6.8-3.6 c-2.1-4.4-2.2-5.3-0.7-5.3c0.6,0,1.6-0.6,2.3-1.4c1.2-1.4,1.2-1.4,2.9,0C462.1,248.9,463.3,249.5,463.8,249.5z"></path> <path class="st1" d="M439.4,225.4c-3.9,2.5-3.9,3.9,0,7.1l2.5,2.1l-2.3,4.1c-2,3.5-2.3,4.8-2.3,8.8c0,2.8,0.4,5.5,1.1,6.8 c1.9,3.7,3.3,11.1,4.1,21.2c0.4,5.4,1,10.4,1.4,11c0.3,0.6,0.8,3.2,1.1,5.8c0.6,5.3,2.9,14.3,4.5,17.4c0.8,1.7,1,3.4,0.6,8.5 c-0.8,10.2-0.8,10.4,2,9.1c1.6-0.7,1.7-1.2,2-7.4c0.2-5.8,0-7.2-1.7-11.6c-3.7-9.8-7-27.5-6.8-37c0.1-4.2-0.4-6.3-2.9-13.1 c-1.6-4.5-3-9.1-3-10.2c0-1.1,0.9-3.9,2-6.2c1.7-3.6,2.2-4.2,3.9-4.2c1.2,0,2.4-0.7,3.4-1.9c0.8-1,1.7-1.7,1.9-1.5 c0.2,0.2,0.4,3.1,0.5,6.5c0.1,5.2,0.3,6.1,1.3,6.1c1.7,0,1.8-0.9,0.9-7.7c-0.5-3.4-0.8-6.1-0.7-6.2c0.1,0,1.2-0.4,2.6-0.9 s4.4-0.9,6.6-0.9s4-0.2,4-0.5c0-1.2-2.8-2.2-5.2-1.8c-2.1,0.3-2.6,0.2-3-1.1c-0.7-2.1-2-1.9-1.6,0.3c0.3,1.6,0,1.8-2.2,2.2 c-1.4,0.2-3.5,0.7-4.7,1.1c-1.2,0.4-3.9,0.7-6,0.6c-3.4-0.1-3.6-0.1-1.7-0.7c2.6-0.8,3.9-2.4,3.9-5c0-1.5-1.1-2.8-2.4-2.8 C442.8,223.3,441.2,224.2,439.4,225.4z"></path> <path class="st1" d="M469.4,226.3c-1.8,2.9-1.4,6.2,1.3,10.1c2.4,3.4,3.4,3.7,8.6,2.5c3.4-0.8,3.7-1,2.8-1.9 c-0.9-0.9-1.4-0.9-4.2,0c-3,1-3.2,1-5-0.7c-2.8-2.7-3.1-4.7-0.9-8.1c1.5-2.4,1.7-3.1,0.9-3.6C471.4,223.7,470.9,223.9,469.4,226.3z "></path> <path class="st1" d="M442.8,226.9c-0.2,0.4-1.4,1.2-2.5,1.8c-1.8,0.9-2.1,0.9-2.1,0.1c0-0.6,0.9-1.3,2-1.7 C442.7,226,443.3,226,442.8,226.9z"></path> <path class="st1" d="M465.6,235.7c-0.5,2.1,0.4,3.7,1.6,2.9c1-0.6,1-2-0.2-3.6C466.2,233.8,466.1,233.9,465.6,235.7z"></path> <path class="st1" d="M446.7,235c0,0.2-0.6,0.7-1.4,1.1c-1,0.5-1.4,0.5-1.8-0.3c-0.3-0.8,0.1-1.1,1.4-1.1 C445.9,234.7,446.7,234.8,446.7,235z"></path> <path class="st1" d="M457.4,247.1c-1.9,2-1.6,3,0.6,1.7c1.3-0.8,1.7-0.6,3.3,1.4c1,1.2,2.5,2.3,3.2,2.3c2.5,0,2,3-0.7,4.9 c-2.8,1.9-2.2,2.4-7.3-5.6c-1.6-2.5-3-4.3-3.2-3.9c-0.3,0.8,3.8,10.5,5.5,13.1l1.1,1.7l3.8-2.6c2.2-1.5,5.5-3,7.7-3.5 c4.9-1.1,5.1-1.3,4.5-4c-0.5-2.4-2.4-3.2-2.4-0.9c0,1.6-0.3,1.8-3,2.4c-1.6,0.4-2.1,0.2-2.6-1.1c-0.4-1.2-0.3-1.8,0.5-2.4 c0.6-0.5,0.9-1.1,0.7-1.3c-0.3-0.3-1.4,0.2-2.4,1l-1.9,1.5l-2-1.9c-1.1-1.1-2-2.5-2-3.2C460.9,244.8,459.3,245,457.4,247.1z"></path> <path class="st1" d="M434.8,227.7c0,1.6,11,9.6,11.9,8.7c0.2-0.2-1.2-1.8-3-3.5c-3.1-2.9-3.2-3.1-1.5-2.8c2.2,0.4,2.5-0.5,0.6-2.2 C441,226.3,434.8,226.2,434.8,227.7z"></path> <path class="st1" d="M458.7,235.7c0.5,1.3,2.5,2.1,31.6,13.1c13.5,5.1,25.1,9.5,25.8,9.7c0.8,0.3,1.2,1.2,1.2,2.5 c0,1.1-0.1,2.1-0.2,2.1c-0.9,0-42.1-16.6-44.9-18.1c-2-1-5.3-2.4-7.5-3c-2.1-0.6-4.4-1.3-5.1-1.5c-0.9-0.3-1.1-0.1-0.8,0.7 c0.3,0.7,5.5,3.1,12.6,5.9c6.7,2.6,19.7,7.8,28.9,11.5c16.8,6.8,21.6,8,23.6,6c1.5-1.5-0.7-4.5-4.8-6.7c-2-1.1-10.8-4.7-19.5-8.1 C455.7,233,457.9,233.7,458.7,235.7z"></path> <path class="st1" d="M450.1,414.7c1.2,1,3,0.2,3.1-1.4c1.2-17.3,1.4-21.7,1.4-27.9c-0.1-9.9-0.7-23-0.7-24.8c0-1.3,0.6-1.5,5.5-1.9 c3-0.2,8.6-1.2,12.3-2.2c4.1-1.1,10-2,15.1-2.3c4.6-0.3,8.4-0.7,8.4-1s-0.5-0.9-1.1-1.4c-1.7-1.4-17.7,0.2-26.3,2.7 c-3.9,1.1-8.4,2.3-10.1,2.5c-3.5,0.5-3.5,0.4-3.7-8.6c-0.1-3.1-0.4-7.5-0.8-9.8c-0.6-4.1-0.5-4.3,1.4-6.1c3-2.8,11.6-5.3,25.7-7.4 c10.8-1.7,13-1.8,16.5-1.1c4.8,1,4.8,0.9,4.3,14.3c-0.3,8.9-0.3,9.1,1.3,10.2c3.1,2.2,3.2,1.8,2.9-9c-0.4-14.9-0.4-14.8-5.8-16.7 c-5.1-1.8-11.1-2.5-15.3-1.6c-1.6,0.3-6.7,1.3-11.4,2.1c-9.9,1.8-18.5,4.9-20.9,7.6l-1.2,1.3c-0.3,0.4-0.5,0.8-0.5,1.3l-0.1,33.6 c-0.1,33.1,0.1,22.9-1.3,45.4c0,0.6,0.2,1.2,0.7,1.6L450.1,414.7z"></path> <path class="st1" d="M489,329.9c-2.3,1.1-2.1,4.3,0.5,9.6c2,4,3.3,5.1,6.2,5.2c1.3,0,1.1-6-0.2-10.6c-0.8-2.8-1.6-3.9-2.9-4.4 c-1-0.4-1.8-0.7-1.9-0.6S489.9,329.5,489,329.9z"></path> <path class="st1" d="M531.6,429.3c1.1-0.6,1.6-1.8,1.4-3c-0.7-3.9-2-11.4-2.1-12.3c-0.3-2.6-3.6-12.8-6.1-19.2 c-1.1-2.8-4.7-14.2-2.3-6.8c-0.9-5.2-1-5-3.5-9.7c-0.6-1.1-2.3-4.8-3.9-8.2c-3.3-7.4-8.5-15.5-9.9-15.5c-0.5,0-0.9,0.2-0.7,0.6 c0.1,0.3,1.8,3.6,3.6,7.3c4.3,8.5,6.9,14,8.8,21.5c0.8,3.2,3.1,10.1,5.1,15.4s3.8,11.1,4.2,12.9c0.6,3.3,2.4,17.7,4.3,18.3 C532.4,431.2,531.6,429.3,531.6,429.3z"></path> </g> </svg> 